<?xml version="1.0" encoding="utf-8"?>
<!-- Generator: Adobe Illustrator 18.1.1, SVG Export Plug-In . SVG Version: 6.00 Build 0)  -->
<svg version="1.1" id="Layer_1" xmlns="http://www.w3.org/2000/svg" xmlns:xlink="http://www.w3.org/1999/xlink" x="0px" y="0px"
	 viewBox="-743 745 512 512" enable-background="new -743 745 512 512" xml:space="preserve">
<g>
	<g>
		<g>
			<path fill="#FFFFFF" d="M-368.9,873l-13.6,10.3c24.1,32.9,38.5,73.6,38.5,117.7s-14.4,84.8-38.6,117.7l13.6,10.3
				c26.3-35.7,41.9-80,41.9-128S-342.6,908.7-368.9,873z"/>
			<path fill="#FFFFFF" d="M-423,1096.8c20-26.8,32-59.9,32-95.8s-12-69-32-95.8l-13.6,10.1c17.9,24,28.6,53.6,28.6,85.7
				s-10.7,61.7-28.6,85.7L-423,1096.8z"/>
			<path fill="#FFFFFF" d="M-469.9,1064.9c13.7-17.9,21.9-39.9,21.9-63.9s-8.2-46-21.9-63.9l-13.5,9.8
				c11.6,15.1,18.5,33.8,18.5,54.1s-6.9,38.9-18.5,54.1L-469.9,1064.9z"/>
		</g>
	</g>
	<polygon fill="#FFFFFF" points="-589.1,961 -647,961 -647,1041 -589.1,1041 -519,1097 -519,905 	"/>
</g>
</svg>
