<?xml version="1.0" encoding="utf-8"?>
<!-- Generator: Adobe Illustrator 23.1.1, SVG Export Plug-In . SVG Version: 6.00 Build 0)  -->
<svg version="1.1" id="Layer_1" xmlns="http://www.w3.org/2000/svg" xmlns:xlink="http://www.w3.org/1999/xlink" x="0px" y="0px"
	 viewBox="0 0 400 250" style="enable-background:new 0 0 400 250;" xml:space="preserve">
<style type="text/css">
	.st0{fill:#FFFFFF;}
</style>
<g>
	<path class="st0" d="M49.66,201.88H196.9v18.62H39.1c-25.72,0-37.24-14.21-37.24-37.24v-60.66c0-19.58,11.52-36.47,37.24-36.47
		h157.8v18.62H49.66c-11.13,0-16.13,9.21-16.13,17.85v60.66C33.53,194.97,38.53,201.88,49.66,201.88z"/>
</g>
<g>
	<path class="st0" d="M203.32,145.16h146.09c10.37,0,15.17-8.06,15.17-18.24v-1.73c0-6.72-1.73-20.54-15.17-20.73H203.32v-19.2
		h146.09c10.56,0,15.17-7.49,15.17-18.05c0-10.75-4.8-18.05-15.17-18.05H203.32v-19.2h155.11c26.49,0,39.35,15.74,39.35,37.24
		c0,10.75-3.84,20.35-10.94,27.45c6.72,7.49,10.94,19.2,10.94,30.52v1.73c0,19.96-12.86,37.24-39.35,37.24H203.32V145.16z"/>
</g>
</svg>
