<?xml version="1.0" encoding="utf-8"?>
<!-- Generator: Adobe Illustrator 18.1.1, SVG Export Plug-In . SVG Version: 6.00 Build 0)  -->
<svg version="1.1" id="Layer_1" xmlns="http://www.w3.org/2000/svg" xmlns:xlink="http://www.w3.org/1999/xlink" x="0px" y="0px"
	 viewBox="-743 745 512 512" enable-background="new -743 745 512 512" xml:space="preserve">
<g>
	<polygon fill="#FFFFFF" points="-253.6,1001 -295,1042.4 -337.4,1001 -348.2,1011.8 -295,1065 -242.3,1012.3 	"/>
	<g>
		<path fill="#FFFFFF" d="M-283,1000.5c0-0.6,0-1.2,0-1.7l0,0C-284.2,887.3-375.3,797-487,797c-73.6,0-141.8,39.9-177.9,104.1
			l13.9,7.8c33.3-59.2,96.1-95.9,163.9-95.9c103.3,0,187.4,83.7,188,186.8c0,6.9-0.3,13.8-1,20.8l15.9,1.7
			c0.8-7.2,1.1-14.3,1.1-21.3h0C-283,1000.8-283,1000.7-283,1000.5z"/>
		<path fill="#FFFFFF" d="M-323.1,1093.1c-33.3,59.2-96.1,95.9-163.9,95.9c-103.5,0-187.7-84-188-187.4c0-6.7,0.3-13.4,1-20.2
			l-15.9-1.7c-0.8,7.2-1.1,14.3-1.1,21.3h0c0,0.5,0,0.9,0,1.4c0,1,0,2,0,2.9l0,0C-688.6,1115.8-598,1205-487,1205
			c73.6,0,141.8-39.9,177.9-104.1L-323.1,1093.1z"/>
		<g>
			<polygon fill="#FFFFFF" points="-679,937 -731.7,989.7 -720.4,1001 -679,959.6 -637.6,1001 -626.3,989.7 			"/>
		</g>
	</g>
</g>
</svg>
