<?xml version="1.0" encoding="utf-8"?>
<!-- Generator: Adobe Illustrator 18.1.1, SVG Export Plug-In . SVG Version: 6.00 Build 0)  -->
<svg version="1.1" id="Layer_1" xmlns="http://www.w3.org/2000/svg" xmlns:xlink="http://www.w3.org/1999/xlink" x="0px" y="0px"
	 viewBox="-743 745 512 512" enable-background="new -743 745 512 512" xml:space="preserve">
<g>
	<g>
		<path fill="#FFFFFF" d="M-383,969v-72c0-57.4-46.6-104-104-104c-57.5,0-104,46.6-104,104v72h-56v240h320V969H-383z M-575,897
			c0-48.5,39.5-88,88-88c48.5,0,88,39.5,88,88v72h-176V897z M-343,1193h-288V985h288V1193z"/>
	</g>
	<path fill="#FFFFFF" d="M-487,1033c-17.7,0-32,14.3-32,32c0,14.9,10.2,27.4,24,31v33h16v-33c13.8-3.6,24-16.1,24-31
		C-455,1047.3-469.3,1033-487,1033z M-487,1081c-8.8,0-16-7.2-16-16s7.2-16,16-16s16,7.2,16,16S-478.2,1081-487,1081z"/>
</g>
</svg>
